<?xml version="1.0" standalone="no"?>
<!DOCTYPE svg PUBLIC "-//W3C//DTD SVG 20010904//EN"
 "http://www.w3.org/TR/2001/REC-SVG-20010904/DTD/svg10.dtd">
<svg version="1.0" xmlns="http://www.w3.org/2000/svg"
 width="1280.000000pt" height="1280.000000pt" viewBox="0 0 1280.000000 1280.000000"
 preserveAspectRatio="xMidYMid meet">
<metadata>
Created by potrace 1.15, written by Peter Selinger 2001-2017
</metadata>
<g transform="translate(0.000000,1280.000000) scale(0.100000,-0.100000)"
fill="#000000" stroke="none">
<path d="M6095 12794 c-1423 -76 -2711 -581 -3815 -1498 -178 -147 -608 -575
-757 -752 -750 -894 -1234 -1921 -1427 -3034 -70 -401 -91 -659 -91 -1110 0
-380 7 -503 46 -810 119 -939 444 -1836 952 -2630 264 -412 508 -713 881
-1086 343 -342 621 -570 996 -816 903 -594 1862 -929 2965 -1035 252 -24 858
-24 1110 0 1103 106 2062 441 2965 1035 388 255 699 511 1040 859 324 328 542
597 782 963 594 903 929 1862 1035 2965 24 252 24 858 0 1110 -106 1103 -441
2062 -1035 2965 -240 366 -458 635 -782 963 -341 348 -652 604 -1040 859 -900
592 -1874 933 -2955 1033 -162 15 -716 27 -870 19z m615 -1635 c675 -57 1311
-297 1790 -675 120 -95 341 -321 429 -438 192 -255 354 -574 440 -864 33 -113
72 -299 92 -442 18 -125 18 -655 1 -805 -79 -680 -304 -1155 -728 -1528 -358
-315 -796 -527 -1348 -652 -155 -36 -214 -75 -269 -179 -19 -38 -22 -62 -28
-296 -8 -290 -15 -332 -84 -475 -78 -160 -175 -259 -330 -335 -112 -55 -180
-71 -333 -77 -148 -6 -244 5 -353 42 -111 38 -177 81 -274 179 -99 100 -144
176 -187 316 -22 74 -22 80 -26 780 -3 773 -1 809 56 913 31 58 108 129 175
163 67 35 255 84 524 139 266 55 342 74 478 122 490 174 790 497 884 954 19
90 29 279 20 380 -22 268 -134 501 -342 716 -277 285 -603 408 -1032 390 -538
-24 -840 -200 -1276 -743 -158 -198 -315 -362 -399 -417 -128 -84 -354 -119
-532 -82 -301 62 -549 352 -576 674 -19 225 23 486 114 714 151 376 480 738
923 1015 624 391 1416 576 2191 511z m-210 -7969 c307 -75 584 -344 675 -655
38 -129 45 -312 17 -447 -63 -305 -273 -551 -579 -678 -101 -42 -197 -60 -322
-60 -248 0 -488 110 -674 310 -117 126 -187 265 -223 440 -25 124 -15 324 21
440 66 206 189 373 370 502 224 159 467 210 715 148z"/>
</g>
</svg>
